<svg width="157" height="53" viewBox="0 0 157 53" fill="none" xmlns="http://www.w3.org/2000/svg">
<g clip-path="url(#clip0_8_139)">
<path d="M-0.000154495 34H23.2215V27.1072L-0.000154495 27.1072V34Z" fill="black"/>
<path d="M6.92792 34L6.92792 10.8928H0.00097084L0.00097084 34H6.92792Z" fill="black"/>
<path d="M23.2176 4H6.92389V10.8928H23.2176V4Z" fill="black"/>
<path d="M23.2175 10.8928V27.1062H30.1445V10.8928H23.2175Z" fill="black"/>
<path d="M43.3746 7.60564H52.2743C58.3658 7.60564 62.2893 12.4933 62.2893 19.1908C62.2893 22.8726 61.0452 26.1096 58.6527 28.1048C56.9627 29.507 54.7614 30.2952 51.8908 30.2952H43.3746V7.60564ZM51.5717 26.335C55.9099 26.335 57.6009 23.7009 57.6009 19.1938C57.6009 14.6867 55.623 11.5438 51.6996 11.5438H47.9996V26.335H51.5717Z" fill="black"/>
<path d="M63.6602 22.1424C63.6602 17.3179 66.9455 13.573 71.7305 13.573C76.9927 13.573 79.7999 17.5713 79.7999 23.3804H67.9349C68.254 25.8843 69.6571 27.4427 72.113 27.4427C73.804 27.4427 74.7924 26.6806 75.2705 25.4396H79.5452C78.9413 28.3281 76.3555 30.772 72.1452 30.772C66.723 30.775 63.6602 26.998 63.6602 22.1424ZM67.9983 20.3967H75.2705C75.1437 18.3335 73.7718 16.9052 71.7939 16.9052C69.497 16.9052 68.3808 18.2704 67.9983 20.3967Z" fill="black"/>
<path d="M81.1356 23.2852H85.6649C85.984 26.0145 87.5472 27.0912 90.7982 27.0912C93.1586 27.0912 95.227 26.2659 95.227 24.1716C95.227 21.9501 93.0579 21.5054 89.5813 20.7122C85.4989 19.7917 81.7667 18.709 81.7667 13.9836C81.7667 9.50763 85.4355 7.19101 90.5064 7.19101C95.6397 7.19101 98.9612 9.69492 99.3105 14.2691H94.8817C94.6261 11.9835 92.8405 10.8407 90.4802 10.8407C87.992 10.8407 86.3655 11.8884 86.3655 13.5069C86.3655 15.3478 87.9598 15.8876 91.3408 16.6178C96.0302 17.6334 99.857 18.7441 99.857 23.6288C99.857 28.236 96.1258 30.802 90.9905 30.802C84.8074 30.807 81.2986 28.0807 81.1356 23.2852Z" fill="black"/>
<path d="M101.165 14.0167H103.43V8.93874H107.673V14.0167H110.48V16.8732H107.677V25.5067C107.677 26.7086 108.347 27.1252 109.303 27.1252C109.846 27.1252 110.579 27.0932 110.579 27.0932V30.2671C110.579 30.2671 109.591 30.3313 107.868 30.3313C105.763 30.3313 103.434 29.506 103.434 26.4251V16.8732H101.165V14.0167Z" fill="black"/>
<path d="M111.759 22.1715C111.759 17.3159 115.236 13.571 120.308 13.571C125.38 13.571 128.856 17.3159 128.856 22.1715C128.856 27.0271 125.38 30.7729 120.308 30.7729C115.236 30.7729 111.759 27.0301 111.759 22.1715ZM124.455 22.1715C124.455 18.9975 122.955 16.8401 120.308 16.8401C117.628 16.8401 116.161 18.9975 116.161 22.1715C116.161 25.3454 117.628 27.4798 120.308 27.4798C122.955 27.4798 124.455 25.3474 124.455 22.1715Z" fill="black"/>
<path d="M135.043 16.6198H135.139C136.127 14.7789 137.243 13.8264 139.158 13.8264C139.636 13.8264 139.923 13.8584 140.178 13.9536V17.7305H140.083C137.243 17.4451 135.202 18.9324 135.202 22.3648V30.2992H130.865V14.0167H135.043V16.6198Z" fill="black"/>
<path d="M140.785 22.1424C140.785 17.3179 144.07 13.573 148.854 13.573C154.117 13.573 156.924 17.5713 156.924 23.3804H145.058C145.377 25.8843 146.78 27.4427 149.236 27.4427C150.927 27.4427 151.916 26.6806 152.395 25.4396H156.669C156.065 28.3281 153.479 30.772 149.269 30.772C143.842 30.775 140.785 26.998 140.785 22.1424ZM145.122 20.3967H152.398C152.27 18.3335 150.898 16.9052 148.92 16.9052C146.621 16.9052 145.505 18.2704 145.122 20.3967V20.3967Z" fill="black"/>
</g>
<path d="M101.368 48.195C103.838 48.195 105.008 46.947 105.008 45.374C105.008 43.814 103.786 42.943 102.057 42.657L100.874 42.449C100.029 42.293 99.587 41.942 99.587 41.318C99.587 40.668 100.068 40.109 101.225 40.109C102.499 40.109 103.071 40.876 103.318 41.617L104.891 41.019C104.553 39.901 103.461 38.705 101.277 38.705C99.093 38.705 97.858 39.927 97.858 41.396C97.858 43.021 98.911 43.775 100.523 44.048L101.68 44.243C102.785 44.438 103.24 44.867 103.24 45.504C103.24 46.245 102.668 46.791 101.394 46.791C99.964 46.791 99.249 45.868 99.015 44.906L97.403 45.504C97.793 46.973 99.041 48.195 101.368 48.195ZM110.358 48V40.356H113.569V38.9H105.509V40.356H108.668V48H110.358ZM118.682 48.195C121.555 48.195 123.414 46.245 123.414 43.463C123.414 40.707 121.542 38.705 118.682 38.705C115.835 38.705 113.937 40.707 113.937 43.463C113.937 46.245 115.796 48.195 118.682 48.195ZM118.682 46.752C116.81 46.752 115.718 45.348 115.718 43.463C115.718 41.552 116.81 40.148 118.682 40.148C120.541 40.148 121.633 41.552 121.633 43.463C121.633 45.348 120.541 46.752 118.682 46.752ZM126.876 48V44.412H128.618C129.788 44.412 130.321 44.828 130.49 45.92L130.802 48H132.622L132.206 45.777C131.959 44.438 131.27 44.074 129.853 44.048V43.424C130.958 43.372 132.453 43.099 132.453 41.331C132.453 39.901 131.348 38.9 129.424 38.9H125.186V48H126.876ZM126.876 40.356H129.125C130.022 40.356 130.698 40.759 130.698 41.669C130.698 42.579 130.022 42.995 129.125 42.995H126.876V40.356ZM141.11 48V46.544H136.118V44.022H139.862V42.592H136.118V40.356H141.11V38.9H134.428V48H141.11ZM147.536 50.002H141.712V49.17H147.536V50.002ZM151.896 48.195C154.067 48.195 155.601 46.531 155.601 43.45C155.601 40.369 154.002 38.705 151.896 38.705C149.79 38.705 148.178 40.369 148.178 43.45C148.178 46.531 149.712 48.195 151.896 48.195ZM151.896 46.765C150.752 46.765 149.92 45.79 149.92 43.45C149.92 41.175 150.752 40.135 151.896 40.135C153.014 40.135 153.859 41.175 153.859 43.45C153.859 45.803 153.027 46.765 151.896 46.765Z" fill="black"/>
<defs>
<clipPath id="clip0_8_139">
<rect width="156.923" height="30" fill="white" transform="translate(0 4)"/>
</clipPath>
</defs>
</svg>
